ply
format ascii 1.0
element vertex 6
property float32 x
property float32 y
property float32 z
element face 8
property list uint8 int32 vertex_indices
end_header
    0.0000    0.0000   14.1421
   14.1421    0.0000    0.0000
    0.0000   14.1421    0.0000
  -14.1421    0.0000    0.0000
    0.0000  -14.1421    0.0000
    0.0000    0.0000  -14.1421
      3      0      1      2
      3      0      2      3
      3      0      3      4
      3      0      4      1
      3      1      4      5
      3      1      5      2
      3      2      5      3
      3      3      5      4
